<svg xmlns="http://www.w3.org/2000/svg" width="563.721" height="202.086" viewBox="0 0 563.721 202.086">
  <g id="Group_13879" data-name="Group 13879" transform="translate(0 0)">
    <g id="Group_13295" data-name="Group 13295" transform="translate(0 44.684)">
      <g id="Group_13294" data-name="Group 13294">
        <path id="Path_9990" data-name="Path 9990" d="M3005.08,1868.658l-83.711-7.525a26.911,26.911,0,0,1-24.484-25.812l-3.9-90.209a26.912,26.912,0,0,1,30.7-27.633l102.722,14.676a26.914,26.914,0,0,1,22.8,30.724l-15.116,83.058A26.913,26.913,0,0,1,3005.08,1868.658Z" transform="translate(-2890.049 -1714.286)" fill="#e1171e"/>
        <path id="Path_9991" data-name="Path 9991" d="M3008.7,1872.885c-.89,0-1.783-.041-2.683-.121l-83.712-7.525a29.891,29.891,0,0,1-27.139-28.612l-3.9-90.19a29.833,29.833,0,0,1,34.029-30.651l102.722,14.675a29.832,29.832,0,0,1,25.269,34.057l-15.13,83.14A29.869,29.869,0,0,1,3008.7,1872.885Zm-87.639-151.559a24,24,0,0,0-23.954,24.877l3.9,90.19a24.043,24.043,0,0,0,21.827,23.029l83.71,7.523a24.014,24.014,0,0,0,25.861-20.254l15.129-83.14a23.993,23.993,0,0,0-20.332-27.308l-102.722-14.676A24.181,24.181,0,0,0,2921.06,1721.326Z" transform="translate(-2891.249 -1715.483)" fill="#0f0f0f"/>
      </g>
    </g>
    <g id="Group_13297" data-name="Group 13297" transform="translate(36.512 81.078)">
      <g id="Group_13296" data-name="Group 13296" transform="translate(0 0)">
        <path id="Path_9992" data-name="Path 9992" d="M2998.65,1754.478a12.286,12.286,0,0,0-11.35-13.157l-58.816-4.341a12.287,12.287,0,0,0-1.809,24.508l30.778,2.27-40.821,38.556a12.286,12.286,0,1,0,16.873,17.864l59.922-56.594A12.208,12.208,0,0,0,2998.65,1754.478Z" transform="translate(-2912.781 -1736.947)" fill="#fff"/>
      </g>
    </g>
    <g id="Group_13300" data-name="Group 13300" transform="translate(60.937 143.937)">
      <g id="Group_13299" data-name="Group 13299" transform="translate(0 0)">
        <g id="Group_13298" data-name="Group 13298">
          <path id="Path_9993" data-name="Path 9993" d="M2978.812,1774.02a11.855,11.855,0,0,1-9.632,7.874,33.025,33.025,0,0,1-7.381-.466,39.036,39.036,0,0,0-20.421,3.517c-4.855,2.246-10.8,5.99-14.191,10.641a34.96,34.96,0,0,1,27.322-3.135,33.924,33.924,0,0,0-24.26,3.861,26.528,26.528,0,0,1,8.475-.714c5.166.4,10.195,1.791,15.276,2.818s10.354,1.683,15.42.6,9.937-4.169,12.037-8.906C2983.77,1784.893,2982.29,1778.543,2978.812,1774.02Z" transform="translate(-2927.186 -1774.02)" fill="#fff"/>
        </g>
      </g>
    </g>
    <g id="Group_13302" data-name="Group 13302" transform="translate(56.642 0)">
      <g id="Group_13301" data-name="Group 13301">
        <path id="Path_9994" data-name="Path 9994" d="M2992.4,1728.123l-7.4-1.046a26.736,26.736,0,1,0-52.946-7.479l-7.4-1.047a34.207,34.207,0,1,1,67.741,9.572Z" transform="translate(-2924.654 -1689.13)" fill="#0f0f0f"/>
      </g>
    </g>
    <path id="Path_11109" data-name="Path 11109" d="M55.335-50.694q-2.142,2.38-5.771,6.426t-7.794,8.925q-4.165,4.879-8.39,10.234T25.7-14.756H55.93V0H4.165V-10.472q2.5-4.284,6.01-9.222t7.378-9.937q3.867-5,7.676-9.7t7.021-8.508H5.593V-62.594H55.335ZM89.964-12.376q2.618,0,5-.119a34.774,34.774,0,0,0,3.808-.357V-26.3q-1.071-.238-3.213-.476a35.782,35.782,0,0,0-3.927-.238,35.142,35.142,0,0,0-4.7.3,12.28,12.28,0,0,0-3.868,1.13,6.636,6.636,0,0,0-2.618,2.261,6.3,6.3,0,0,0-.952,3.57q0,4.165,2.8,5.771A15.454,15.454,0,0,0,89.964-12.376ZM88.536-64.26a41.061,41.061,0,0,1,13.09,1.785,20.328,20.328,0,0,1,8.39,5.117,18.807,18.807,0,0,1,4.462,8.092,39.914,39.914,0,0,1,1.309,10.591v36.89Q111.979-.952,105.2.178A101.771,101.771,0,0,1,88.774,1.309,52.065,52.065,0,0,1,77.767.238a23.889,23.889,0,0,1-8.508-3.511,16.064,16.064,0,0,1-5.474-6.366,21.975,21.975,0,0,1-1.9-9.639,18.266,18.266,0,0,1,2.2-9.282,16.943,16.943,0,0,1,5.891-6.069A26.619,26.619,0,0,1,78.421-37.9,47.4,47.4,0,0,1,88.3-38.913a56.075,56.075,0,0,1,6.128.3,27.279,27.279,0,0,1,4.344.773v-1.666a9.812,9.812,0,0,0-2.737-7.259Q93.3-49.5,86.513-49.5a60.618,60.618,0,0,0-8.925.655,38.287,38.287,0,0,0-7.616,1.844l-2.261-14.28q1.547-.476,3.868-1.012t5.058-.952q2.737-.417,5.771-.714T88.536-64.26Zm61.285,51.527q4.879,0,6.9-.952a3.678,3.678,0,0,0,2.023-3.689q0-2.142-2.618-3.748a49.752,49.752,0,0,0-7.973-3.63,81.708,81.708,0,0,1-7.556-3.213,22.212,22.212,0,0,1-5.772-3.986,16.125,16.125,0,0,1-3.689-5.534,20.487,20.487,0,0,1-1.309-7.735,16.727,16.727,0,0,1,6.545-13.923q6.545-5.117,17.969-5.117a57.622,57.622,0,0,1,10.948,1.012,50.941,50.941,0,0,1,8.33,2.2l-3.094,13.8a65.1,65.1,0,0,0-6.724-1.9,36.54,36.54,0,0,0-8.151-.833q-8.33,0-8.33,4.641a4.794,4.794,0,0,0,.357,1.9,4.063,4.063,0,0,0,1.428,1.607,19.9,19.9,0,0,0,2.915,1.666q1.844.893,4.7,1.964a72.616,72.616,0,0,1,9.639,4.225,22.647,22.647,0,0,1,6.01,4.522,14.04,14.04,0,0,1,3.094,5.414,24.085,24.085,0,0,1,.893,6.9q0,9.282-6.962,14.042T149.7,1.666A56.6,56.6,0,0,1,135.839.238a56.2,56.2,0,0,1-7.675-2.38l2.975-14.4a58.163,58.163,0,0,0,9.282,2.8A45.135,45.135,0,0,0,149.821-12.733ZM207.3-39.984q2.618-2.856,5.414-5.95t5.415-6.128q2.618-3.034,4.938-5.771t3.987-4.76h21.063Q241.808-55.335,235.8-48.73T222.649-35.1a81.511,81.511,0,0,1,7.378,7.675q3.808,4.463,7.378,9.223t6.545,9.52q2.975,4.76,5,8.687H228.6q-1.9-3.094-4.344-6.843t-5.176-7.5q-2.737-3.748-5.771-7.2A48.193,48.193,0,0,0,207.3-27.37V0H189.567V-89.488L207.3-92.344Zm43.911,9.163A38.279,38.279,0,0,1,253.768-45.4a31.254,31.254,0,0,1,6.723-10.412,27.97,27.97,0,0,1,9.579-6.307A29.994,29.994,0,0,1,281.2-64.26q13.328,0,21.063,8.152t7.735,23.979q0,1.547-.119,3.392t-.238,3.273H269.416a11.783,11.783,0,0,0,5.117,8.687q4.522,3.213,12.138,3.213a51.24,51.24,0,0,0,9.579-.892,36.161,36.161,0,0,0,7.676-2.2l2.38,14.4A24.487,24.487,0,0,1,302.5-.833a49.827,49.827,0,0,1-5.3,1.25q-2.915.536-6.247.893a62.51,62.51,0,0,1-6.664.357,39.448,39.448,0,0,1-14.7-2.5,28.625,28.625,0,0,1-10.353-6.842,27.158,27.158,0,0,1-6.069-10.294A40.775,40.775,0,0,1,251.209-30.821Zm41.65-6.783a18.3,18.3,0,0,0-.773-4.4,10.994,10.994,0,0,0-2.023-3.808,10.77,10.77,0,0,0-3.451-2.737,11.243,11.243,0,0,0-5.177-1.071,11.893,11.893,0,0,0-5.117,1.012,10.574,10.574,0,0,0-3.57,2.677,11.978,11.978,0,0,0-2.2,3.868,25.381,25.381,0,0,0-1.13,4.463Zm30.226-40.579,17.731-2.856v18.445h21.3v14.756h-21.3v22.015A17.513,17.513,0,0,0,342.78-16.9q1.963,3.332,7.913,3.332a33.877,33.877,0,0,0,5.891-.536,30.359,30.359,0,0,0,5.534-1.487l2.5,13.8a50.447,50.447,0,0,1-7.14,2.261,41.6,41.6,0,0,1-9.639.952A31.731,31.731,0,0,1,335.818-.535,18.854,18.854,0,0,1,328.2-6.01a20.377,20.377,0,0,1-3.986-8.509,50.227,50.227,0,0,1-1.131-11.067Z" transform="translate(199.105 162.197)" fill="#0f0f0f"/>
  </g>
</svg>
