<svg width="34" height="34" viewBox="0 0 74 74" fill="none" xmlns="http://www.w3.org/2000/svg">
<path d="M37 68.0338C22.6101 49.2563 15.4167 35.8962 15.4167 27.9504C15.4167 25.1161 15.975 22.3095 17.0596 19.6908C18.1443 17.0722 19.7341 14.6929 21.7383 12.6887C23.7425 10.6845 26.1218 9.09469 28.7404 8.01002C31.359 6.92536 34.1657 6.36709 37 6.36709C39.8344 6.36709 42.641 6.92536 45.2596 8.01002C47.8782 9.09469 50.2575 10.6845 52.2617 12.6887C54.2659 14.6929 55.8558 17.0722 56.9404 19.6908C58.0251 22.3095 58.5834 25.1161 58.5834 27.9504C58.5834 35.8962 51.3899 49.2563 37 68.0338ZM37 40.2838C40.271 40.2838 43.4081 38.9844 45.721 36.6714C48.034 34.3585 49.3334 31.2214 49.3334 27.9504C49.3334 24.6794 48.034 21.5424 45.721 19.2294C43.4081 16.9165 40.271 15.6171 37 15.6171C33.729 15.6171 30.592 16.9165 28.279 19.2294C25.9661 21.5424 24.6667 24.6794 24.6667 27.9504C24.6667 31.2214 25.9661 34.3585 28.279 36.6714C30.592 38.9844 33.729 40.2838 37 40.2838V40.2838Z" fill="#A700E2"/>
</svg>
